HIERARCHY
ROOT Hips
{
    OFFSET 0.000000 0.000000 0.000000
    CHANNELS 6 Xposition Yposition Zposition Zrotation Xrotation Yrotation
    JOINT Spine
    {
        OFFSET -0.000000 7.284621 0.000000
        CHANNELS 3 Zrotation Xrotation Yrotation
        JOINT Spine1
        {
            OFFSET -0.000000 19.968920 0.000000
            CHANNELS 3 Zrotation Xrotation Yrotation
            JOINT Neck
            {
                OFFSET -0.000000 21.745657 0.000000
                CHANNELS 3 Zrotation Xrotation Yrotation
                JOINT Head
                {
                    OFFSET -0.000000 13.769711 1.776737
                    CHANNELS 3 Zrotation Xrotation Yrotation
                    End Site
                    {
                        OFFSET -0.000000 17.767368 0.000000
                    }
                }
            }
            JOINT LeftShoulder
            {
                OFFSET 3.594505 17.711157 -0.013107
                CHANNELS 3 Zrotation Xrotation Yrotation
                JOINT LeftArm
                {
                    OFFSET 12.210003 0.000000 0.000000
                    CHANNELS 3 Zrotation Xrotation Yrotation
                    JOINT LeftForeArm
                    {
                        OFFSET 24.535166 0.000000 0.000000
                        CHANNELS 3 Zrotation Xrotation Yrotation
                        JOINT LeftHand
                        {
                            OFFSET 20.235195 0.000000 0.000000
                            CHANNELS 3 Zrotation Xrotation Yrotation
                            JOINT LeftHandThumb1
                            {
                                OFFSET 1.906737 -2.166747 3.033446
                                CHANNELS 3 Zrotation Xrotation Yrotation
                                JOINT LeftHandThumb2
                                {
                                    OFFSET 2.043247 0.000000 1.332553
                                    CHANNELS 3 Zrotation Xrotation Yrotation
                                    JOINT LeftHandThumb3
                                    {
                                        OFFSET 2.665105 0.000000 0.000000
                                        CHANNELS 3 Zrotation Xrotation Yrotation
                                        End Site
                                        {
                                            OFFSET 2.367595 0.000000 0.000000
                                        }
                                    }
                                }
                            }
                            JOINT LeftHandIndex1
                            {
                                OFFSET 7.800290 0.000000 3.033446
                                CHANNELS 3 Zrotation Xrotation Yrotation
                                JOINT LeftHandIndex2
                                {
                                    OFFSET 4.441842 0.000000 0.000000
                                    CHANNELS 3 Zrotation Xrotation Yrotation
                                    JOINT LeftHandIndex3
                                    {
                                        OFFSET 2.220921 0.000000 0.000000
                                        CHANNELS 3 Zrotation Xrotation Yrotation
                                        End Site
                                        {
                                            OFFSET 1.972996 0.000000 0.000000
                                        }
                                    }
                                }
                            }
                            JOINT LeftHandMiddle1
                            {
                                OFFSET 7.800290 0.000000 1.005371
                                CHANNELS 3 Zrotation Xrotation Yrotation
                                JOINT LeftHandMiddle2
                                {
                                    OFFSET 4.886026 0.000000 0.000000
                                    CHANNELS 3 Zrotation Xrotation Yrotation
                                    JOINT LeftHandMiddle3
                                    {
                                        OFFSET 2.665105 0.000000 0.000000
                                        CHANNELS 3 Zrotation Xrotation Yrotation
                                        End Site
                                        {
                                            OFFSET 2.367595 0.000000 0.000000
                                        }
                                    }
                                }
                            }
                            JOINT LeftHandRing1
                            {
                                OFFSET 7.366940 0.000000 -1.005371
                                CHANNELS 3 Zrotation Xrotation Yrotation
                                JOINT LeftHandRing2
                                {
                                    OFFSET 4.441842 0.000000 0.000000
                                    CHANNELS 3 Zrotation Xrotation Yrotation
                                    JOINT LeftHandRing3
                                    {
                                        OFFSET 2.220921 0.000000 0.000000
                                        CHANNELS 3 Zrotation Xrotation Yrotation
                                        End Site
                                        {
                                            OFFSET 1.972996 0.000000 0.000000
                                        }
                                    }
                                }
                            }
                            JOINT LeftHandPinky1
                            {
                                OFFSET 6.933591 0.000000 -3.033446
                                CHANNELS 3 Zrotation Xrotation Yrotation
                                JOINT LeftHandPinky2
                                {
                                    OFFSET 3.553473 0.000000 0.000000
                                    CHANNELS 3 Zrotation Xrotation Yrotation
                                    JOINT LeftHandPinky3
                                    {
                                        OFFSET 1.776737 0.000000 0.000000
                                        CHANNELS 3 Zrotation Xrotation Yrotation
                                        End Site
                                        {
                                            OFFSET 1.578397 0.000000 0.000000
                                        }
                                    }
                                }
                            }
                        }
                    }
                }
            }
            JOINT RightShoulder
            {
                OFFSET -3.500468 17.711157 -0.013107
                CHANNELS 3 Zrotation Xrotation Yrotation
                JOINT RightArm
                {
                    OFFSET -12.210003 0.000000 0.000000
                    CHANNELS 3 Zrotation Xrotation Yrotation
                    JOINT RightForeArm
                    {
                        OFFSET -24.535166 0.000000 0.000000
                        CHANNELS 3 Zrotation Xrotation Yrotation
                        JOINT RightHand
                        {
                            OFFSET -20.235195 0.000000 0.000000
                            CHANNELS 3 Zrotation Xrotation Yrotation
                            JOINT RightHandThumb1
                            {
                                OFFSET -1.906737 -2.166747 3.033446
                                CHANNELS 3 Zrotation Xrotation Yrotation
                                JOINT RightHandThumb2
                                {
                                    OFFSET -2.043247 0.000000 1.332553
                                    CHANNELS 3 Zrotation Xrotation Yrotation
                                    JOINT RightHandThumb3
                                    {
                                        OFFSET -2.665105 0.000000 0.000000
                                        CHANNELS 3 Zrotation Xrotation Yrotation
                                        End Site
                                        {
                                            OFFSET -2.367595 0.000000 0.000000
                                        }
                                    }
                                }
                            }
                            JOINT RightHandIndex1
                            {
                                OFFSET -7.800290 0.000000 3.033446
                                CHANNELS 3 Zrotation Xrotation Yrotation
                                JOINT RightHandIndex2
                                {
                                    OFFSET -4.441842 0.000000 0.000000
                                    CHANNELS 3 Zrotation Xrotation Yrotation
                                    JOINT RightHandIndex3
                                    {
                                        OFFSET -2.220921 0.000000 0.000000
                                        CHANNELS 3 Zrotation Xrotation Yrotation
                                        End Site
                                        {
                                            OFFSET -1.972996 0.000000 0.000000
                                        }
                                    }
                                }
                            }
                            JOINT RightHandMiddle1
                            {
                                OFFSET -7.800290 0.000000 1.005371
                                CHANNELS 3 Zrotation Xrotation Yrotation
                                JOINT RightHandMiddle2
                                {
                                    OFFSET -4.886026 0.000000 0.000000
                                    CHANNELS 3 Zrotation Xrotation Yrotation
                                    JOINT RightHandMiddle3
                                    {
                                        OFFSET -2.665105 0.000000 0.000000
                                        CHANNELS 3 Zrotation Xrotation Yrotation
                                        End Site
                                        {
                                            OFFSET -2.367595 0.000000 0.000000
                                        }
                                    }
                                }
                            }
                            JOINT RightHandRing1
                            {
                                OFFSET -7.366940 0.000000 -1.005371
                                CHANNELS 3 Zrotation Xrotation Yrotation
                                JOINT RightHandRing2
                                {
                                    OFFSET -4.441842 0.000000 0.000000
                                    CHANNELS 3 Zrotation Xrotation Yrotation
                                    JOINT RightHandRing3
                                    {
                                        OFFSET -2.220921 0.000000 0.000000
                                        CHANNELS 3 Zrotation Xrotation Yrotation
                                        End Site
                                        {
                                            OFFSET -1.972996 0.000000 0.000000
                                        }
                                    }
                                }
                            }
                            JOINT RightHandPinky1
                            {
                                OFFSET -6.933591 0.000000 -3.033446
                                CHANNELS 3 Zrotation Xrotation Yrotation
                                JOINT RightHandPinky2
                                {
                                    OFFSET -3.553473 0.000000 0.000000
                                    CHANNELS 3 Zrotation Xrotation Yrotation
                                    JOINT RightHandPinky3
                                    {
                                        OFFSET -1.776737 0.000000 0.000000
                                        CHANNELS 3 Zrotation Xrotation Yrotation
                                        End Site
                                        {
                                            OFFSET -1.578397 0.000000 0.000000
                                        }
                                    }
                                }
                            }
                        }
                    }
                }
            }
        }
    }
    JOINT LeftUpLeg
    {
        OFFSET 8.883684 0.000000 0.000000
        CHANNELS 3 Zrotation Xrotation Yrotation
        JOINT LeftLeg
        {
            OFFSET -0.000000 -38.184189 0.000000
            CHANNELS 3 Zrotation Xrotation Yrotation
            JOINT LeftFoot
            {
                OFFSET -0.000000 -35.840691 0.000000
                CHANNELS 3 Zrotation Xrotation Yrotation
                JOINT LeftToeBase
                {
                    OFFSET -0.000000 -5.774395 13.325527
                    CHANNELS 3 Zrotation Xrotation Yrotation
                    End Site
                    {
                        OFFSET -0.000000 0.000000 3.553473
                    }
                }
            }
        }
    }
    JOINT RightUpLeg
    {
        OFFSET -8.883684 0.000000 0.000000
        CHANNELS 3 Zrotation Xrotation Yrotation
        JOINT RightLeg
        {
            OFFSET -0.000000 -38.184189 0.000000
            CHANNELS 3 Zrotation Xrotation Yrotation
            JOINT RightFoot
            {
                OFFSET -0.000000 -35.840691 0.000000
                CHANNELS 3 Zrotation Xrotation Yrotation
                JOINT RightToeBase
                {
                    OFFSET -0.000000 -5.774395 13.325527
                    CHANNELS 3 Zrotation Xrotation Yrotation
                    End Site
                    {
                        OFFSET -0.000000 0.000000 3.553473
                    }
                }
            }
        }
    }
}
MOTION
Frames:    5
Frame Time:    0.008333
-3.254219    81.253998    111.800888    1.924284    -0.792991    -0.276148    -0.357698    -1.922061    -1.306092    -3.340922    5.254862    -0.280127    4.030983    -3.070024    -1.271535    -4.089823    -1.624767    -0.415743    1.867911    9.398663    -8.950825    -82.239487    35.217171    -7.757815    6.200906    -16.506359    2.434554    -8.769912    -44.536854    -6.586577    2.887038    2.529255    7.154485    -0.000000    0.000000    5.866915    -0.000000    0.000000    11.733829    0.805708    -0.021712    -1.543550    0.000000    0.000000    0.000000    0.000000    0.000000    0.000000    -10.383192    -0.831298    1.259383    -21.889809    0.000000    0.000000    -10.944904    0.000000    0.000000    -21.525051    -2.168385    3.853301    -43.779617    0.000000    0.000000    -21.889805    0.000000    0.000000    -32.947136    -4.041896    6.206998    -66.332741    0.000000    0.000000    -33.166374    0.000000    0.000000    -2.834132    -0.133519    2.804209    87.896881    52.208462    -2.743064    -3.524211    -19.509264    3.801093    17.101252    -56.245415    10.511752    0.173997    0.882520    -1.389861    0.000000    0.000000    -1.634749    0.000000    0.000000    -3.269497    9.084172    0.071906    0.449713    18.168911    0.000000    -0.000000    9.084455    0.000000    -0.000000    18.430260    0.072974    0.298053    36.860790    0.000000    -0.000000    18.430393    0.000000    -0.000000    27.776318    0.049398    0.148234    55.552673    0.000000    -0.000000    27.776337    0.000000    -0.000000    37.405487    0.000000    -0.000000    74.810974    0.000000    -0.000000    37.405487    0.000000    -0.000000    -3.992929    0.168287    -0.074938    -1.490305    3.400617    -5.772017    4.026675    -2.415968    10.384636    -1.687517    0.024356    4.393514    -1.403150    0.040467    1.287509    2.274290    6.027417    1.739510    -5.373210    -4.652111    -4.741083    2.757465    -0.047549    -4.695853    
-3.250454    81.253723    111.798630    1.928526    -0.779971    -0.271377    -0.359007    -1.922575    -1.302999    -3.350473    5.243590    -0.278910    4.033269    -3.055782    -1.271236    -4.094811    -1.622313    -0.413998    1.874349    9.403303    -8.959946    -82.238342    35.219604    -7.758862    6.197011    -16.515606    2.432510    -8.726308    -44.510227    -6.544993    2.883282    2.518837    7.134569    -0.000000    0.000000    5.846428    -0.000000    0.000000    11.692856    0.766386    -0.021332    -1.594321    0.000000    0.000000    0.000000    0.000000    0.000000    0.000000    -10.428452    -0.825648    1.214425    -21.926493    0.000000    0.000000    -10.963245    0.000000    0.000000    -21.576311    -2.158961    3.814921    -43.852982    0.000000    0.000000    -21.926487    0.000000    0.000000    -33.004452    -4.030236    6.175820    -66.443909    0.000000    0.000000    -33.221954    0.000000    0.000000    -2.829263    -0.136729    2.809618    87.897247    52.220947    -2.747025    -3.516279    -19.520784    3.797240    17.077621    -56.246994    10.487044    0.173971    0.881496    -1.388104    0.000000    0.000000    -1.632906    0.000000    0.000000    -3.265812    9.084950    0.071980    0.450136    18.170467    0.000000    -0.000000    9.085234    0.000000    -0.000000    18.402016    0.072969    0.298341    36.804295    0.000000    -0.000000    18.402147    0.000000    -0.000000    27.719048    0.049369    0.148390    55.438122    0.000000    -0.000000    27.719061    0.000000    -0.000000    37.318306    0.000000    -0.000000    74.636620    0.000000    -0.000000    37.318306    0.000000    -0.000000    -4.001446    0.149325    -0.072832    -1.486745    3.408569    -5.784243    4.027591    -2.416678    10.389517    -1.686436    0.025052    4.390874    -1.408556    0.015039    1.286631    2.273332    6.050263    1.734584    -5.372471    -4.661001    -4.743752    2.757541    -0.048571    -4.695992    
-3.246948    81.253723    111.796936    1.931764    -0.769426    -0.266066    -0.359762    -1.921652    -1.300624    -3.359527    5.233631    -0.278021    4.035239    -3.042457    -1.270882    -4.098536    -1.620472    -0.412452    1.880917    9.406584    -8.969281    -82.238930    35.221233    -7.757600    6.194201    -16.523306    2.429168    -8.690907    -44.488449    -6.510144    2.881434    2.510002    7.119153    -0.000000    0.000000    5.830399    -0.000000    0.000000    11.660798    0.734321    -0.020962    -1.635049    0.000000    0.000000    0.000000    0.000000    0.000000    0.000000    -10.464998    -0.821032    1.178307    -21.955696    0.000000    0.000000    -10.977848    0.000000    0.000000    -21.617395    -2.151278    3.784039    -43.911392    0.000000    0.000000    -21.955694    0.000000    0.000000    -33.050098    -4.020699    6.150690    -66.532402    0.000000    0.000000    -33.266209    0.000000    0.000000    -2.824860    -0.139283    2.815418    87.896973    52.235233    -2.750065    -3.510095    -19.530428    3.794639    17.056864    -56.246651    10.464205    0.174631    0.881014    -1.386776    0.000000    0.000000    -1.631728    0.000000    0.000000    -3.263456    9.086897    0.071928    0.449709    18.174360    0.000000    -0.000000    9.087180    0.000000    -0.000000    18.380789    0.072848    0.298064    36.761848    0.000000    -0.000000    18.380924    0.000000    -0.000000    27.674652    0.049265    0.148262    55.349335    0.000000    -0.000000    27.674665    0.000000    -0.000000    37.250042    0.000000    -0.000000    74.500084    0.000000    -0.000000    37.250042    0.000000    -0.000000    -4.008635    0.133035    -0.070966    -1.483540    3.416963    -5.796337    4.028889    -2.418012    10.394215    -1.685434    0.025901    4.388486    -1.412261    -0.006911    1.284863    2.270948    6.072104    1.728610    -5.370628    -4.670173    -4.744224    2.757578    -0.049583    -4.696060    
-3.243862    81.254150    111.796211    1.933271    -0.763210    -0.259982    -0.359496    -1.918160    -1.299585    -3.367814    5.225700    -0.277463    4.036681    -3.030499    -1.270587    -4.100141    -1.619917    -0.411365    1.886251    9.410303    -8.978889    -82.238907    35.221844    -7.755289    6.193318    -16.529243    2.423565    -8.666915    -44.472759    -6.484930    2.882527    2.503206    7.110055    -0.000000    0.000000    5.820520    -0.000000    0.000000    11.641041    0.713515    -0.020701    -1.661764    0.000000    0.000000    0.000000    0.000000    0.000000    0.000000    -10.488573    -0.817962    1.154625    -21.974363    0.000000    0.000000    -10.987183    0.000000    0.000000    -21.643778    -2.146168    3.763810    -43.948723    0.000000    0.000000    -21.974367    0.000000    0.000000    -33.079304    -4.014342    6.134266    -66.588982    0.000000    0.000000    -33.294491    0.000000    0.000000    -2.821022    -0.140652    2.821928    87.895653    52.252220    -2.751995    -3.506844    -19.536472    3.794574    17.041037    -56.242760    10.444679    0.176185    0.881217    -1.385979    0.000000    0.000000    -1.631267    0.000000    0.000000    -3.262534    9.090337    0.071683    0.448005    18.181236    0.000000    -0.000000    9.090617    0.000000    -0.000000    18.369589    0.072551    0.296937    36.739433    0.000000    -0.000000    18.369720    0.000000    -0.000000    27.648798    0.049049    0.147706    55.297626    0.000000    -0.000000    27.648813    0.000000    -0.000000    37.209099    0.000000    -0.000000    74.418205    0.000000    -0.000000    37.209099    0.000000    -0.000000    -4.013641    0.121520    -0.069672    -1.480654    3.426053    -5.809214    4.030534    -2.420326    10.399844    -1.684603    0.026880    4.386576    -1.413426    -0.022984    1.282312    2.266946    6.092563    1.722145    -5.366854    -4.680006    -4.743080    2.757373    -0.050205    -4.695717    
-3.241154    81.254974    111.796364    1.933207    -0.760804    -0.253341    -0.358371    -1.912715    -1.299775    -3.375282    5.219766    -0.277335    4.037657    -3.020395    -1.270472    -4.099514    -1.620772    -0.410893    1.891538    9.412572    -8.988340    -82.241386    35.222069    -7.749945    6.195073    -16.532402    2.415726    -8.651820    -44.460873    -6.468018    2.886238    2.497790    7.105926    -0.000000    0.000000    5.815468    -0.000000    0.000000    11.630936    0.702464    -0.020550    -1.675604    0.000000    0.000000    0.000000    0.000000    0.000000    0.000000    -10.501143    -0.816256    1.142057    -21.984375    0.000000    0.000000    -10.992186    0.000000    0.000000    -21.657898    -2.143255    3.752753    -43.968754    0.000000    0.000000    -21.984371    0.000000    0.000000    -33.094997    -4.010578    6.124927    -66.619316    0.000000    0.000000    -33.309658    0.000000    0.000000    -2.818546    -0.141210    2.829349    87.894562    52.271339    -2.753669    -3.506567    -19.537666    3.797718    17.030140    -56.233982    10.429115    0.178407    0.882037    -1.385758    0.000000    0.000000    -1.631683    0.000000    0.000000    -3.263365    9.095477    0.071859    0.448849    18.191519    0.000000    -0.000000    9.095760    0.000000    -0.000000    18.367376    0.072696    0.297497    36.735031    0.000000    -0.000000    18.367514    0.000000    -0.000000    27.639240    0.049135    0.147987    55.278538    0.000000    -0.000000    27.639265    0.000000    -0.000000    37.191978    0.000000    -0.000000    74.383957    0.000000    -0.000000    37.191978    0.000000    -0.000000    -4.016416    0.114368    -0.068725    -1.478629    3.435358    -5.820329    4.032437    -2.423420    10.403727    -1.683980    0.027691    4.385164    -1.412603    -0.033937    1.278945    2.262223    6.111868    1.716830    -5.363012    -4.689732    -4.741958    2.757098    -0.050873    -4.695253    
